<svg width="54" height="23" viewBox="0 0 54 23" fill="none" xmlns="http://www.w3.org/2000/svg">
<path d="M16.864 23L15.2 17.56H6.88L5.216 23H0L8.064 0.0559998H13.984L22.08 23H16.864ZM12.384 8.184C12.2773 7.82133 12.1387 7.36267 11.968 6.808C11.7973 6.25333 11.6267 5.688 11.456 5.112C11.2853 4.536 11.1467 4.03467 11.04 3.608C10.9333 4.03467 10.784 4.568 10.592 5.208C10.4213 5.82667 10.2507 6.424 10.08 7C9.93067 7.55467 9.81333 7.94933 9.728 8.184L8.096 13.496H14.048L12.384 8.184ZM32.2698 0.151999C35.2138 0.151999 37.3578 0.791999 38.7018 2.072C40.0671 3.33067 40.7498 5.06933 40.7498 7.288C40.7498 8.29067 40.6004 9.25067 40.3018 10.168C40.0031 11.064 39.5018 11.8747 38.7978 12.6C38.1151 13.304 37.2084 13.8587 36.0778 14.264C34.9471 14.6693 33.5498 14.872 31.8858 14.872H29.8058V23H24.9738V0.151999H32.2698ZM32.0138 4.12H29.8058V10.904H31.4058C32.3231 10.904 33.1124 10.7867 33.7738 10.552C34.4351 10.3173 34.9471 9.944 35.3098 9.432C35.6724 8.92 35.8538 8.25867 35.8538 7.448C35.8538 6.31733 35.5444 5.48533 34.9258 4.952C34.3071 4.39733 33.3364 4.12 32.0138 4.12ZM53.6115 23H43.2115V20.248L45.9955 18.968V4.184L43.2115 2.904V0.151999H53.6115V2.904L50.8275 4.184V18.968L53.6115 20.248V23Z" fill="#3B82F6"/>
</svg>
